<svg width="308" height="308" viewBox="0 0 308 308" fill="none" xmlns="http://www.w3.org/2000/svg">
<g style="mix-blend-mode:multiply">
<path d="M156.5 101.567L156 1.06685C249.673 -1.93991 334.223 96.943 298 205.5L205.5 171.5C213.5 133.5 194.621 103.501 156.5 101.567Z" fill="#FAFF1D"/>
</g>
<g style="mix-blend-mode:multiply">
<path d="M130.5 199C163.606 216.352 193.335 199.307 205.5 171.5L298 205.5C269.185 289.386 168.84 334.35 80.9998 289.5L130.5 199Z" fill="#FF601C"/>
</g>
<g style="mix-blend-mode:multiply">
<path d="M130 198.5C107.907 187.408 97.9312 156.875 107 135.5L10.9998 99C-15.8286 169.381 12.9969 252.993 81.4998 288L130 198.5Z" fill="#1D76F8"/>
</g>
<g style="mix-blend-mode:multiply">
<path d="M141 103.5L113.5 6.5C59.1621 24.5342 33.9588 50.3882 11 99L107.5 135.5C114.92 117.79 122.982 110.726 141 103.5Z" fill="#1DA8F1"/>
</g>
<g style="mix-blend-mode:multiply">
<path d="M152.5 0.499718C138.723 0.0518613 129.294 2.25998 113.5 5.99972L142 104L154.5 102L152.5 0.499718Z" fill="#3CFF1D"/>
</g>
<g style="mix-blend-mode:multiply">
<path d="M155.5 1H152L154.5 102H156L155.5 1Z" fill="#FCFF72"/>
<path d="M155.5 1H152L154.5 102H156L155.5 1Z" stroke="#FFFDF8"/>
</g>
<circle cx="154" cy="154" r="153" stroke="#FFFDF8" stroke-width="2"/>
<line x1="155.5" x2="155.5" y2="101" stroke="#FFFDF8"/>
<line x1="152.5" y1="0.990002" x2="154.5" y2="100.99" stroke="#FFFDF8"/>
<line x1="113.48" y1="6.86133" x2="141.48" y2="103.861" stroke="#FFFDF8"/>
<line x1="12.1772" y1="99.5324" x2="107.177" y2="135.532" stroke="#FFFDF8"/>
<line x1="81.5606" y1="288.761" x2="130.561" y2="198.761" stroke="#FFFDF8"/>
<line x1="297.828" y1="205.47" x2="204.828" y2="171.47" stroke="#FFFDF8"/>
<path d="M202.225 48.8431L203.438 49.3878L199.193 57.1832L204.021 59.3506L203.486 60.3342L197.444 57.6221L202.225 48.8431Z" fill="#909200"/>
<path d="M211.741 53.4077L217.74 56.8192L217.122 57.7532L212.279 54.9991L210.525 57.6495L215.04 60.2167L214.422 61.1507L209.907 58.5835L207.999 61.4673L212.879 64.2421L212.261 65.1762L206.224 61.744L211.741 53.4077Z" fill="#909200"/>
<path d="M219.137 64.8202L221.894 66.79L223.455 62.184L223.432 62.1677L219.137 64.8202ZM223.615 60.8213L224.811 61.6759L221.737 71.746L220.541 70.8913L221.535 67.908L218.095 65.4499L215.301 67.1473L214.196 66.3577L223.615 60.8213Z" fill="#909200"/>
<path d="M230.952 66.4856L235.867 70.84L235.09 71.6471L231.171 68.1747L228.968 70.4649L232.405 73.5102L231.628 74.3173L228.191 71.272L225.017 74.5711L224.022 73.6891L230.952 66.4856Z" fill="#909200"/>
<path d="M237.426 81.0446L234.34 83.725L233.443 82.743L236.529 80.0626L238.384 73.336L239.451 74.504L237.878 79.837L243.445 78.8763L244.465 79.9927L237.426 81.0446Z" fill="#909200"/>
<path d="M247.634 99.9663C246.976 99.9189 246.396 99.7062 245.901 99.3399C245.399 98.9618 244.999 98.5356 244.686 98.0377C244.284 97.3975 244.041 96.7729 243.965 96.1252C243.888 95.4775 243.928 94.856 244.114 94.2576C244.281 93.6548 244.567 93.1094 244.976 92.6021C245.365 92.0904 245.845 91.6704 246.401 91.3185C247.016 90.9291 247.648 90.6451 248.308 90.4591C248.968 90.2731 249.617 90.2269 250.252 90.2893C250.874 90.3591 251.473 90.5762 252.035 90.9169C252.596 91.2576 253.098 91.768 253.523 92.4437C253.806 92.8942 254.022 93.3703 254.169 93.8408C254.315 94.3113 254.381 94.7836 254.357 95.246C254.321 95.7159 254.209 96.1683 253.988 96.6063C253.767 97.0444 253.45 97.4606 253.005 97.8581L252.298 96.7319C252.58 96.4704 252.785 96.1914 252.932 95.8994C253.072 95.5955 253.142 95.286 253.162 94.9753C253.162 94.6602 253.124 94.3363 253.016 94.0068C252.909 93.6774 252.77 93.351 252.576 93.0428C252.249 92.5212 251.867 92.1499 251.435 91.9097C250.991 91.677 250.533 91.5528 250.053 91.5254C249.572 91.498 249.078 91.5791 248.585 91.742C248.085 91.8931 247.617 92.1227 247.168 92.4073C246.718 92.6919 246.33 93.0207 246.009 93.4057C245.682 93.7789 245.434 94.2007 245.283 94.6444C245.124 95.0762 245.07 95.5417 245.104 96.0172C245.138 96.4927 245.323 96.9719 245.621 97.4461C245.896 97.8848 246.213 98.2311 246.571 98.485C246.922 98.7271 247.29 98.8918 247.687 98.9716C248.084 99.0515 248.492 99.0421 248.897 98.951C249.303 98.8598 249.699 98.6751 250.082 98.4161L248.385 95.7131L249.331 95.114L251.662 98.8248L247.214 101.64L246.767 100.929L247.634 99.9663Z" fill="#909200"/>
<path d="M257.448 99.8853L259.483 104.126C259.895 104.985 260.004 105.761 259.822 106.45C259.627 107.145 259.186 107.682 258.462 108.049C257.913 108.327 257.378 108.442 256.857 108.392C256.324 108.348 255.861 108.096 255.451 107.629L255.426 107.642C255.497 107.92 255.513 108.179 255.479 108.4C255.433 108.627 255.356 108.823 255.242 109.006C255.128 109.189 254.984 109.341 254.808 109.493C254.633 109.645 254.438 109.79 254.238 109.923C254.019 110.049 253.813 110.17 253.595 110.296C253.37 110.41 253.157 110.549 252.963 110.695C252.75 110.834 252.575 110.986 252.405 111.15C252.236 111.314 252.122 111.498 252.032 111.7L251.39 110.362C251.436 110.229 251.53 110.103 251.68 109.995C251.818 109.894 251.981 109.78 252.181 109.679C252.374 109.565 252.581 109.445 252.805 109.331C253.024 109.204 253.224 109.072 253.431 108.92C253.625 108.774 253.807 108.635 253.982 108.483C254.158 108.332 254.278 108.161 254.379 107.984C254.475 107.795 254.52 107.599 254.523 107.378C254.526 107.157 254.46 106.892 254.321 106.601L252.916 103.673L249.107 105.603L248.532 104.404L257.448 99.8853ZM255.114 105.666C255.248 105.944 255.387 106.202 255.558 106.429C255.717 106.663 255.895 106.839 256.11 106.966C256.326 107.092 256.561 107.161 256.816 107.173C257.07 107.185 257.375 107.109 257.7 106.945C258.149 106.717 258.451 106.407 258.617 106.009C258.77 105.618 258.72 105.125 258.454 104.57L257.025 101.591L253.915 103.167L255.114 105.666Z" fill="#909200"/>
<path d="M262.253 110.767L264.566 117.27L263.525 117.685L261.658 112.435L258.706 113.612L260.447 118.506L259.406 118.921L257.666 114.027L254.454 115.308L256.335 120.598L255.295 121.013L252.968 114.47L262.253 110.767Z" fill="#909200"/>
<path d="M265.664 121.388L267.308 128.091L266.235 128.414L264.909 123.003L261.866 123.919L263.102 128.964L262.03 129.287L260.793 124.242L257.482 125.239L258.819 130.692L257.746 131.014L256.093 124.27L265.664 121.388Z" fill="#909200"/>
<path d="M268.015 132.37L268.203 133.771L260.954 140.586L260.958 140.614L268.905 139.016L269.072 140.265L259.272 142.235L259.079 140.792L266.251 134.035L266.247 134.008L258.382 135.588L258.215 134.34L268.015 132.37Z" fill="#909200"/>
<path d="M266.544 151.265C267.252 151.109 267.762 150.806 268.071 150.326C268.381 149.846 268.535 149.269 268.519 148.584C268.512 148.304 268.477 148.027 268.415 147.766C268.353 147.492 268.25 147.264 268.119 147.066C267.975 146.87 267.804 146.719 267.578 146.615C267.352 146.512 267.086 146.482 266.766 146.514C266.459 146.545 266.211 146.654 266.02 146.856C265.829 147.057 265.682 147.311 265.578 147.63C265.46 147.95 265.37 148.296 265.296 148.696C265.221 149.082 265.147 149.483 265.073 149.883C264.985 150.285 264.882 150.688 264.766 151.092C264.65 151.482 264.491 151.835 264.289 152.164C264.074 152.494 263.815 152.759 263.499 152.973C263.169 153.188 262.767 153.327 262.279 153.375C261.75 153.429 261.287 153.349 260.906 153.148C260.524 152.948 260.21 152.671 259.965 152.331C259.719 151.977 259.542 151.573 259.419 151.123C259.297 150.672 259.244 150.214 259.233 149.767C259.22 149.207 259.277 148.668 259.404 148.15C259.531 147.632 259.73 147.177 260 146.772C260.269 146.366 260.624 146.036 261.065 145.767C261.505 145.498 262.018 145.349 262.631 145.287L262.661 146.547C262.243 146.589 261.883 146.695 261.58 146.894C261.278 147.092 261.046 147.326 260.857 147.612C260.669 147.897 260.523 148.22 260.448 148.593C260.359 148.952 260.326 149.32 260.335 149.698C260.342 149.992 260.377 150.283 260.44 150.586C260.503 150.888 260.593 151.145 260.738 151.383C260.883 151.607 261.069 151.785 261.309 151.915C261.535 152.033 261.844 152.086 262.206 152.05C262.54 152.017 262.817 151.891 263.035 151.686C263.24 151.484 263.401 151.229 263.533 150.907C263.665 150.585 263.769 150.238 263.843 149.852C263.917 149.451 263.992 149.051 264.066 148.651C264.14 148.251 264.242 147.848 264.345 147.459C264.447 147.056 264.592 146.704 264.78 146.377C264.967 146.049 265.199 145.788 265.501 145.575C265.803 145.362 266.177 145.241 266.637 145.195C267.138 145.144 267.572 145.199 267.939 145.373C268.306 145.532 268.619 145.782 268.864 146.094C269.109 146.406 269.3 146.78 269.421 147.202C269.543 147.625 269.623 148.066 269.634 148.528C269.646 149.032 269.588 149.515 269.487 149.974C269.372 150.42 269.186 150.817 268.944 151.179C268.687 151.541 268.359 151.826 267.973 152.061C267.588 152.296 267.116 152.442 266.574 152.524L266.544 151.265Z" fill="#909200"/>
<path d="M74.7968 239.062C74.452 239.69 74.3548 240.312 74.4946 240.918C74.6437 241.513 74.9771 242.046 75.5041 242.507C75.9573 242.903 76.421 243.16 76.8846 243.268C77.3483 243.375 77.8145 243.374 78.2741 243.274C78.7337 243.173 79.1669 242.976 79.5751 242.7C80.003 242.424 80.3769 242.081 80.7178 241.691C81.0956 241.259 81.4129 240.811 81.6392 240.339C81.8761 239.877 82.0234 239.411 82.0614 238.942C82.0994 238.473 82.0294 238.021 81.8501 237.567C81.6814 237.122 81.3651 236.697 80.9119 236.3C80.5852 236.015 80.244 235.809 79.8989 235.694C79.5538 235.578 79.1942 235.542 78.8387 235.566C78.4831 235.59 78.1328 235.693 77.7878 235.875C77.452 236.046 77.14 236.276 76.8425 236.573L75.8412 235.698C76.7759 234.841 77.7477 234.389 78.7565 234.342C79.7759 234.303 80.7651 234.703 81.7242 235.541C82.3144 236.058 82.7374 236.595 82.9945 237.173C83.262 237.76 83.3808 238.347 83.3521 238.955C83.3431 239.56 83.1945 240.156 82.9182 240.77C82.6511 241.373 82.2628 241.945 81.7836 242.493C81.3044 243.041 80.7883 243.482 80.2064 243.829C79.6349 244.185 79.0344 244.403 78.426 244.504C77.8176 244.604 77.1986 244.546 76.5716 244.37C75.9447 244.194 75.3361 243.848 74.7564 243.341C74.3664 243 74.0436 242.625 73.7774 242.206C73.5217 241.797 73.3438 241.362 73.2448 240.922C73.1551 240.472 73.1549 240.025 73.2324 239.554C73.3205 239.092 73.5086 238.642 73.7955 238.187L74.7968 239.062Z" fill="#114087"/>
<path d="M68.544 237.109L65.3433 233.661C64.6955 232.964 64.3651 232.258 64.3416 231.554C64.3285 230.84 64.5996 230.206 65.1947 229.654C65.6461 229.235 66.1312 228.975 66.65 228.876C67.1791 228.766 67.7001 228.875 68.2329 229.202L68.2534 229.183C68.1039 228.939 68.0138 228.698 67.9823 228.479C67.961 228.251 67.9786 228.043 68.0358 227.837C68.093 227.631 68.189 227.447 68.315 227.253C68.4411 227.06 68.5869 226.867 68.7423 226.685C68.9174 226.503 69.0823 226.331 69.2574 226.149C69.4421 225.978 69.6077 225.786 69.7536 225.593C69.9192 225.401 70.0452 225.207 70.1618 225.004C70.2783 224.8 70.3354 224.594 70.3633 224.377L71.373 225.465C71.3679 225.603 71.3129 225.75 71.1986 225.894C71.0946 226.029 70.97 226.183 70.8058 226.335C70.6512 226.498 70.4863 226.67 70.3016 226.842C70.1265 227.023 69.9711 227.206 69.815 227.408C69.6692 227.601 69.5336 227.784 69.4076 227.977C69.2815 228.171 69.2148 228.366 69.1679 228.563C69.1306 228.769 69.143 228.968 69.2046 229.178C69.2661 229.389 69.4061 229.622 69.6252 229.858L71.8352 232.238L74.9643 229.333L75.8693 230.307L68.544 237.109ZM69.1283 230.969C68.9187 230.743 68.7084 230.537 68.4768 230.37C68.2555 230.193 68.032 230.076 67.7866 230.017C67.5411 229.959 67.2934 229.959 67.0435 230.02C66.7936 230.08 66.5203 230.238 66.2535 230.486C65.8842 230.829 65.6819 231.207 65.6365 231.632C65.6013 232.046 65.7925 232.499 66.2117 232.951L68.4598 235.372L71.0144 233L69.1283 230.969Z" fill="#114087"/>
<path d="M60.7623 217.7C61.7921 216.927 62.7634 216.635 63.682 216.785C64.6089 216.947 65.4354 217.534 66.1922 218.541C66.9658 219.571 67.3362 220.554 67.281 221.506C67.2257 222.458 66.6636 223.318 65.5891 224.125L60.485 227.96L59.6861 226.896L64.7902 223.062C65.5066 222.524 65.9121 221.921 65.9956 221.263C66.079 220.605 65.8461 219.922 65.3079 219.206C64.8034 218.534 64.2375 218.154 63.599 218.073C62.9605 217.992 62.2775 218.225 61.5612 218.764L56.4571 222.598L55.6582 221.535L60.7623 217.7Z" fill="#114087"/>
<path d="M51.8961 209.697C51.3734 210.187 51.0881 210.748 51.0331 211.367C50.9902 211.979 51.1417 212.59 51.4998 213.191C51.8077 213.708 52.1689 214.096 52.5762 214.343C52.9835 214.589 53.4272 214.732 53.8952 214.779C54.3632 214.827 54.8364 214.773 55.3099 214.638C55.8025 214.508 56.2643 214.298 56.7094 214.033C57.2026 213.739 57.6431 213.412 58.0046 213.034C58.3732 212.668 58.6579 212.27 58.8395 211.836C59.0211 211.402 59.0947 210.951 59.0652 210.464C59.0429 209.988 58.8741 209.486 58.5662 208.968C58.3442 208.596 58.0836 208.294 57.7914 208.077C57.4992 207.86 57.1684 207.715 56.823 207.627C56.4775 207.54 56.1126 207.529 55.7282 207.595C55.3559 207.654 54.9881 207.775 54.6129 207.965L53.9326 206.823C55.0869 206.298 56.151 206.17 57.1249 206.438C58.1059 206.717 58.9222 207.404 59.5739 208.499C59.9749 209.173 60.2104 209.815 60.2754 210.444C60.3476 211.085 60.2783 211.68 60.0626 212.249C59.8661 212.822 59.5402 213.342 59.087 213.84C58.6459 214.33 58.0994 214.753 57.4739 215.126C56.8483 215.498 56.2208 215.757 55.56 215.906C54.9063 216.067 54.2676 216.089 53.6581 215.996C53.0485 215.902 52.478 215.656 51.9366 215.294C51.3952 214.932 50.924 214.414 50.5302 213.752C50.2652 213.307 50.0748 212.85 49.9516 212.369C49.8356 211.901 49.8012 211.432 49.8436 210.984C49.898 210.528 50.0363 210.103 50.2563 209.679C50.4834 209.267 50.8017 208.898 51.2158 208.554L51.8961 209.697Z" fill="#114087"/>
<path d="M46.6088 205.931L46.0267 204.735L55.0143 200.36L55.5965 201.556L46.6088 205.931Z" fill="#114087"/>
<path d="M43.5409 199.229L41.1308 193.121L42.1726 192.71L44.0946 197.581L47.0507 196.414L45.3652 192.143L46.407 191.731L48.0925 196.003L52.351 194.322L52.8392 195.56L43.5409 199.229Z" fill="#114087"/>
<path d="M39.6403 188.502L37.7204 181.873L38.7962 181.561L40.3462 186.913L43.3987 186.029L41.9539 181.04L43.0297 180.729L44.4745 185.718L47.796 184.756L46.2344 179.363L47.3102 179.052L49.2418 185.722L39.6403 188.502Z" fill="#114087"/>
<path d="M36.7514 177.441L35.8881 172.817C35.7134 171.881 35.8112 171.108 36.1677 170.5C36.5379 169.89 37.1059 169.499 37.9041 169.35C38.5096 169.237 39.0583 169.277 39.55 169.47C40.0556 169.661 40.438 170.031 40.7136 170.592L40.7412 170.587C40.7448 170.301 40.7975 170.049 40.8879 169.847C40.9921 169.642 41.1178 169.477 41.2762 169.333C41.4345 169.19 41.6144 169.085 41.8243 168.989C42.0342 168.892 42.2604 168.807 42.4893 168.736C42.7344 168.676 42.9658 168.619 43.211 168.559C43.4587 168.513 43.7013 168.439 43.9275 168.354C44.1701 168.28 44.38 168.184 44.5874 168.074C44.7947 167.964 44.9531 167.821 45.0925 167.652L45.3649 169.111C45.2865 169.225 45.1617 169.32 44.988 169.381C44.828 169.439 44.6404 169.502 44.4202 169.544C44.2026 169.598 43.9712 169.656 43.7235 169.702C43.4784 169.762 43.2495 169.833 43.0095 169.921C42.7833 170.006 42.5708 170.088 42.3609 170.184C42.151 170.281 41.99 170.41 41.8454 170.551C41.7034 170.706 41.6078 170.88 41.5475 171.091C41.4871 171.302 41.4809 171.574 41.54 171.89L42.1361 175.083L46.3335 174.299L46.5776 175.607L36.7514 177.441ZM40.5264 172.564C40.4698 172.261 40.4021 171.974 40.2957 171.709C40.203 171.442 40.0767 171.223 39.9006 171.043C39.7244 170.862 39.5147 170.73 39.2713 170.647C39.028 170.565 38.7124 170.552 38.3546 170.619C37.8592 170.712 37.4857 170.924 37.2206 171.258C36.9692 171.59 36.8889 172.075 37.0019 172.68L37.6083 175.928L41.0351 175.288L40.5264 172.564Z" fill="#114087"/>
<path d="M39.7436 164.177C40.246 164.136 40.7439 164.04 41.221 163.861C41.6993 163.696 42.115 163.452 42.4832 163.141C42.8514 162.831 43.1442 162.456 43.3454 161.99C43.5477 161.538 43.6176 161.013 43.568 160.399C43.5196 159.799 43.3663 159.292 43.093 158.864C42.8209 158.451 42.4706 158.114 42.0574 157.866C41.6441 157.619 41.1957 157.458 40.6961 157.358C40.1975 157.272 39.6895 157.243 39.1871 157.283C38.6848 157.324 38.202 157.433 37.7237 157.598C37.2466 157.777 36.8158 158.009 36.4476 158.319C36.0794 158.63 35.8017 159.017 35.5994 159.469C35.3982 159.935 35.3143 160.461 35.3627 161.061C35.4123 161.675 35.5796 162.182 35.8517 162.595C36.125 163.022 36.4602 163.347 36.8734 163.594C37.2867 163.842 37.7501 164.015 38.2487 164.101C38.7484 164.201 39.2413 164.218 39.7436 164.177ZM39.8507 165.503C39.1808 165.557 38.5171 165.512 37.8734 165.367C37.2296 165.223 36.6467 164.961 36.1256 164.596C35.6196 164.243 35.1883 163.772 34.8468 163.196C34.5204 162.632 34.3106 161.947 34.2464 161.152C34.1833 160.37 34.2805 159.66 34.5111 159.037C34.7568 158.428 35.107 157.894 35.5488 157.451C36.0057 157.021 36.5391 156.669 37.1513 156.422C37.7635 156.176 38.4103 156.012 39.0801 155.958C39.7639 155.903 40.4288 155.961 41.0725 156.106C41.7162 156.251 42.2992 156.513 42.8052 156.865C43.3263 157.23 43.7576 157.701 44.084 158.265C44.4115 158.842 44.6074 159.529 44.6705 160.31C44.7347 161.105 44.6515 161.814 44.4197 162.423C44.189 163.046 43.8388 163.58 43.382 164.01C42.9402 164.453 42.4068 164.805 41.7946 165.051C41.1824 165.297 40.5344 165.448 39.8507 165.503Z" fill="#114087"/>
<path d="M40.7263 144.514C42.0138 144.549 42.9561 144.924 43.5818 145.613C44.2072 146.316 44.4892 147.29 44.4554 148.55C44.4208 149.837 44.0999 150.837 43.4646 151.548C42.8292 152.259 41.8542 152.583 40.5107 152.547L34.129 152.376L34.1647 151.046L40.5464 151.218C41.442 151.242 42.1342 151.022 42.6088 150.559C43.0834 150.095 43.3257 149.416 43.3498 148.52C43.3723 147.68 43.1656 147.031 42.7158 146.57C42.266 146.11 41.5863 145.868 40.6906 145.844L34.3089 145.672L34.3446 144.343L40.7263 144.514Z" fill="#114087"/>
<path d="M38.5006 133.963C37.7818 133.953 37.2353 134.135 36.8576 134.537C36.4799 134.939 36.2403 135.473 36.1507 136.153C36.1142 136.43 36.1054 136.712 36.1262 136.983C36.1452 137.267 36.2113 137.516 36.3089 137.741C36.4203 137.967 36.5649 138.156 36.7705 138.31C36.9762 138.464 37.2326 138.554 37.5519 138.596C37.8572 138.637 38.118 138.586 38.3361 138.431C38.5542 138.276 38.7379 138.061 38.8891 137.77C39.0543 137.481 39.1953 137.161 39.3297 136.783C39.4623 136.419 39.5967 136.041 39.7312 135.664C39.8795 135.288 40.0417 134.914 40.2177 134.542C40.392 134.183 40.6024 133.872 40.8508 133.594C41.1131 133.318 41.4078 133.117 41.7508 132.978C42.1077 132.842 42.523 132.797 43.0088 132.861C43.5363 132.931 43.9779 133.116 44.3216 133.401C44.6653 133.687 44.9305 134.032 45.119 134.424C45.3056 134.83 45.4174 135.268 45.4681 135.741C45.5189 136.214 45.5002 136.677 45.4418 137.121C45.3687 137.677 45.2299 138.195 45.0253 138.676C44.8208 139.158 44.5559 139.561 44.229 139.899C43.9021 140.237 43.5028 140.481 43.0294 140.645C42.556 140.808 42.0297 140.838 41.4189 140.757L41.5833 139.508C41.9998 139.563 42.3698 139.541 42.6971 139.415C43.0244 139.288 43.2877 139.111 43.5168 138.873C43.7458 138.635 43.9387 138.35 44.0694 138C44.2123 137.666 44.3014 137.31 44.3507 136.935C44.3891 136.644 44.3997 136.349 44.3844 136.036C44.369 135.723 44.3205 135.449 44.2145 135.181C44.1068 134.926 43.9519 134.708 43.736 134.525C43.5322 134.356 43.2378 134.233 42.8769 134.186C42.5438 134.142 42.2534 134.202 42.0076 134.354C41.7756 134.507 41.578 134.721 41.399 135.008C41.22 135.295 41.0651 135.613 40.9325 135.977C40.7981 136.355 40.6637 136.732 40.5292 137.11C40.3948 137.488 40.2326 137.862 40.0723 138.222C39.9101 138.596 39.7135 138.909 39.479 139.189C39.2445 139.469 38.9775 139.674 38.6484 139.814C38.3193 139.954 37.9335 139.988 37.4755 139.928C36.9758 139.862 36.5583 139.708 36.2248 139.453C35.8895 139.211 35.6207 138.893 35.4285 138.529C35.2364 138.165 35.1071 137.752 35.0527 137.307C34.9983 136.862 34.9873 136.409 35.0476 135.951C35.1134 135.451 35.2449 134.989 35.4144 134.559C35.596 134.145 35.8396 133.796 36.1333 133.496C36.4409 133.197 36.8069 132.991 37.2211 132.848C37.6353 132.705 38.12 132.67 38.665 132.713L38.5006 133.963Z" fill="#114087"/>
<path d="M85.032 209.984L85.9402 211.193L80.0589 220.006L79.2012 218.864L84.4143 211.376L84.3975 211.353L75.7367 214.253L74.9042 213.145L85.032 209.984Z" fill="#114087"/>
<path d="M72.797 209.824L69.1873 203.941L70.142 203.356L73.056 208.105L75.7648 206.443L73.0484 202.016L74.003 201.43L76.7194 205.857L79.6668 204.049L76.7308 199.264L77.6854 198.678L81.317 204.597L72.797 209.824Z" fill="#114087"/>
<path d="M71.6917 189.379C72.3412 189.5 72.8946 189.777 73.3459 190.197C73.8032 190.629 74.1536 191.097 74.4091 191.627C74.7378 192.308 74.9103 192.955 74.9137 193.606C74.9172 194.258 74.8084 194.87 74.5562 195.442C74.3227 196.021 73.9775 196.53 73.514 196.987C73.0692 197.45 72.5444 197.812 71.9519 198.098C71.2962 198.415 70.6358 198.625 69.958 198.734C69.2803 198.844 68.6294 198.816 68.0052 198.682C67.3935 198.542 66.8214 198.258 66.301 197.857C65.7806 197.455 65.3377 196.891 64.9908 196.173C64.7596 195.694 64.5974 195.197 64.504 194.713C64.4106 194.23 64.3984 193.754 64.4737 193.298C64.5615 192.836 64.7242 192.4 64.9929 191.99C65.2616 191.581 65.6238 191.204 66.1107 190.86L66.6888 192.058C66.3788 192.285 66.1436 192.538 65.9645 192.811C65.7914 193.097 65.6871 193.396 65.6327 193.702C65.597 194.015 65.5987 194.34 65.6691 194.679C65.7395 195.019 65.8412 195.358 65.9995 195.686C66.2672 196.241 66.6059 196.652 67.0088 196.94C67.4244 197.221 67.8666 197.396 68.3413 197.478C68.8161 197.56 69.3173 197.536 69.826 197.43C70.3407 197.337 70.8316 197.162 71.3107 196.931C71.7898 196.7 72.2133 196.418 72.575 196.072C72.9428 195.739 73.2363 195.349 73.4363 194.926C73.6424 194.515 73.749 194.06 73.7682 193.584C73.7873 193.108 73.6565 192.612 73.4131 192.108C73.1879 191.641 72.9115 191.262 72.5837 190.969C72.262 190.689 71.9142 190.484 71.5277 190.359C71.1412 190.235 70.7348 190.198 70.3209 190.242C69.907 190.287 69.4918 190.425 69.0818 190.638L70.4693 193.513L69.4606 194L67.5559 190.053L72.2966 187.765L72.6617 188.522L71.6917 189.379Z" fill="#114087"/>
<path d="M67.4476 178.036C68.0803 178.227 68.6008 178.562 69.0045 179.027C69.4128 179.506 69.711 180.009 69.9084 180.563C70.1621 181.275 70.2643 181.937 70.1979 182.585C70.1315 183.233 69.9578 183.83 69.6457 184.372C69.3515 184.923 68.9537 185.392 68.4439 185.796C67.952 186.209 67.3915 186.513 66.7717 186.734C66.0859 186.978 65.4068 187.116 64.7212 187.152C64.0356 187.189 63.3915 187.091 62.7851 186.891C62.192 186.686 61.6536 186.343 61.1793 185.888C60.705 185.433 60.3249 184.825 60.0571 184.073C59.8785 183.572 59.7706 183.061 59.7295 182.57C59.6884 182.079 59.7274 181.605 59.8511 181.159C59.988 180.709 60.1964 180.293 60.5074 179.915C60.8185 179.536 61.219 179.201 61.74 178.911L62.1864 180.164C61.8538 180.356 61.5928 180.583 61.3854 180.836C61.1827 181.101 61.0469 181.387 60.9601 181.686C60.8911 181.993 60.8579 182.316 60.8916 182.661C60.9252 183.006 60.9899 183.354 61.1121 183.697C61.3189 184.278 61.6114 184.723 61.9813 185.052C62.3643 185.376 62.7851 185.598 63.2484 185.73C63.7116 185.862 64.2126 185.892 64.7297 185.841C65.2514 185.804 65.7582 185.683 66.2593 185.504C66.7604 185.326 67.2117 185.091 67.6084 184.786C68.0098 184.494 68.3434 184.138 68.5876 183.738C68.8365 183.353 68.9913 182.911 69.0613 182.44C69.1314 181.969 69.0545 181.462 68.8665 180.934C68.6927 180.446 68.4585 180.039 68.1639 179.713C67.8741 179.4 67.5503 179.159 67.1794 178.994C66.8085 178.829 66.4083 178.748 65.9921 178.748C65.5758 178.748 65.1482 178.841 64.7177 179.009L65.7891 182.016L64.7341 182.392L63.2632 178.264L68.2219 176.497L68.5038 177.288L67.4476 178.036Z" fill="#114087"/>
<path d="M57.732 175.669L57.3921 174.383L67.0563 171.829L67.3961 173.115L57.732 175.669Z" fill="#114087"/>
<path d="M56.018 168.499L54.774 161.71L55.8757 161.508L56.8799 166.989L60.0059 166.416L59.0698 161.307L60.1714 161.105L61.1076 166.214L64.5089 165.591L63.4971 160.069L64.5988 159.867L65.8503 166.698L56.018 168.499Z" fill="#114087"/>
<path d="M56.6865 151.197C55.982 151.341 55.4869 151.635 55.2036 152.109C54.9203 152.582 54.7998 153.154 54.8573 153.838C54.8808 154.117 54.9322 154.394 55.0103 154.654C55.0895 154.928 55.2071 155.157 55.3503 155.356C55.5074 155.553 55.6889 155.707 55.9226 155.814C56.1564 155.92 56.4262 155.954 56.747 155.927C57.054 155.901 57.298 155.796 57.4781 155.598C57.6581 155.401 57.7917 155.151 57.8775 154.834C57.9772 154.517 58.0467 154.174 58.0975 153.776C58.1496 153.392 58.2004 152.995 58.2513 152.597C58.3161 152.198 58.3948 151.798 58.4875 151.397C58.5814 151.01 58.7207 150.661 58.9041 150.336C59.1015 150.011 59.3466 149.751 59.6522 149.543C59.9718 149.333 60.3682 149.202 60.8564 149.161C61.3866 149.116 61.8575 149.203 62.2541 149.408C62.6507 149.614 62.9835 149.895 63.2511 150.238C63.52 150.594 63.7226 150.999 63.8729 151.45C64.0232 151.901 64.1038 152.358 64.1413 152.804C64.1883 153.362 64.1631 153.898 64.0658 154.412C63.9686 154.926 63.7957 155.376 63.5484 155.776C63.301 156.176 62.9629 156.5 62.5353 156.761C62.1076 157.021 61.5997 157.163 60.9858 157.214L60.8802 155.959C61.2988 155.923 61.6556 155.823 61.9485 155.63C62.2413 155.437 62.4609 155.207 62.6339 154.926C62.8069 154.644 62.9345 154.325 62.9877 153.955C63.0561 153.598 63.0674 153.232 63.0357 152.855C63.0111 152.562 62.9585 152.271 62.8769 151.969C62.7953 151.667 62.6893 151.409 62.5287 151.17C62.3692 150.944 62.1714 150.764 61.9214 150.631C61.6864 150.51 61.3725 150.452 61.0098 150.482C60.6749 150.511 60.4041 150.632 60.1962 150.832C60.0022 151.031 59.8547 151.282 59.741 151.601C59.6273 151.919 59.5439 152.264 59.4918 152.647C59.441 153.045 59.3901 153.443 59.3393 153.84C59.2884 154.238 59.2097 154.638 59.1298 155.024C59.051 155.424 58.9257 155.772 58.7562 156.095C58.5867 156.418 58.3695 156.676 58.0778 156.883C57.7862 157.09 57.4165 157.205 56.9562 157.244C56.4539 157.286 56.0133 157.225 55.6329 157.046C55.2538 156.881 54.9234 156.628 54.6581 156.313C54.3928 155.998 54.1785 155.623 54.0306 155.2C53.8826 154.777 53.7753 154.336 53.7366 153.876C53.6943 153.374 53.7242 152.894 53.7982 152.438C53.8874 151.995 54.0511 151.602 54.274 151.246C54.5109 150.889 54.8246 150.609 55.1988 150.381C55.573 150.153 56.0391 150.015 56.5809 149.942L56.6865 151.197Z" fill="#114087"/>
<path d="M252.94 223.096L249.999 226.767C249.404 227.51 248.761 227.933 248.081 228.044C247.39 228.145 246.741 227.949 246.13 227.414C245.666 227.008 245.353 226.549 245.191 226.035C245.019 225.512 245.058 224.971 245.308 224.39L245.287 224.372C245.07 224.554 244.848 224.675 244.639 224.734C244.42 224.784 244.216 224.792 244.009 224.759C243.802 224.727 243.611 224.652 243.408 224.548C243.204 224.445 242.999 224.321 242.802 224.186C242.604 224.031 242.416 223.885 242.217 223.73C242.028 223.564 241.821 223.42 241.615 223.296C241.408 223.152 241.205 223.048 240.992 222.955C240.78 222.862 240.573 222.83 240.359 222.828L241.287 221.67C241.422 221.658 241.571 221.696 241.725 221.794C241.869 221.882 242.034 221.99 242.203 222.137C242.38 222.274 242.568 222.42 242.758 222.586C242.956 222.741 243.153 222.875 243.369 223.009C243.574 223.133 243.769 223.247 243.972 223.351C244.176 223.455 244.374 223.498 244.571 223.522C244.776 223.534 244.967 223.497 245.163 223.408C245.359 223.32 245.568 223.149 245.769 222.898L247.8 220.363L244.587 217.551L245.418 216.513L252.94 223.096ZM246.91 223.264C246.717 223.504 246.544 223.743 246.411 223.998C246.267 224.245 246.182 224.486 246.156 224.742C246.13 224.998 246.162 225.249 246.252 225.495C246.341 225.741 246.529 225.998 246.803 226.238C247.183 226.57 247.576 226.728 247.993 226.721C248.4 226.706 248.815 226.456 249.2 225.975L251.266 223.396L248.643 221.101L246.91 223.264Z" fill="#A03E14"/>
<path d="M240.612 229.911C240.268 229.543 239.885 229.214 239.452 228.955C239.028 228.686 238.584 228.518 238.119 228.43C237.654 228.342 237.188 228.355 236.709 228.498C236.241 228.632 235.799 228.917 235.365 229.354C234.94 229.781 234.652 230.23 234.498 230.722C234.355 231.204 234.318 231.697 234.388 232.182C234.458 232.667 234.616 233.124 234.851 233.581C235.097 234.028 235.391 234.447 235.735 234.815C236.079 235.183 236.463 235.492 236.886 235.761C237.319 236.02 237.763 236.208 238.228 236.296C238.693 236.384 239.16 236.351 239.629 236.217C240.107 236.074 240.558 235.799 240.983 235.372C241.417 234.935 241.696 234.475 241.84 233.994C241.993 233.502 242.03 233.029 241.96 232.544C241.89 232.059 241.732 231.582 241.487 231.135C241.251 230.677 240.956 230.279 240.612 229.911ZM241.55 228.968C242.009 229.459 242.388 230.01 242.68 230.609C242.972 231.209 243.137 231.836 243.185 232.482C243.233 233.108 243.145 233.752 242.922 234.394C242.698 235.016 242.31 235.624 241.747 236.19C241.194 236.746 240.595 237.13 239.98 237.352C239.365 237.554 238.742 237.625 238.131 237.565C237.52 237.485 236.92 237.294 236.352 236.972C235.784 236.651 235.256 236.249 234.798 235.758C234.329 235.257 233.959 234.696 233.668 234.097C233.376 233.497 233.211 232.869 233.163 232.244C233.115 231.597 233.202 230.954 233.426 230.332C233.659 229.7 234.057 229.102 234.61 228.546C235.173 227.98 235.762 227.586 236.368 227.374C236.983 227.152 237.606 227.081 238.217 227.161C238.828 227.221 239.427 227.412 239.996 227.733C240.564 228.055 241.082 228.466 241.55 228.968Z" fill="#A03E14"/>
<path d="M230.98 239.013C230.675 238.611 230.328 238.245 229.923 237.942C229.529 237.63 229.103 237.415 228.649 237.278C228.194 237.141 227.726 237.103 227.234 237.194C226.752 237.276 226.28 237.511 225.8 237.897C225.331 238.274 224.994 238.687 224.789 239.158C224.594 239.619 224.504 240.104 224.523 240.592C224.541 241.08 224.65 241.548 224.836 242.027C225.034 242.496 225.283 242.942 225.587 243.344C225.892 243.746 226.242 244.093 226.636 244.405C227.041 244.708 227.464 244.942 227.919 245.08C228.373 245.217 228.843 245.235 229.325 245.153C229.818 245.062 230.298 244.838 230.767 244.461C231.247 244.075 231.575 243.65 231.77 243.189C231.976 242.719 232.063 242.254 232.045 241.766C232.026 241.278 231.92 240.789 231.722 240.32C231.536 239.841 231.284 239.415 230.98 239.013ZM232.017 238.181C232.422 238.716 232.743 239.303 232.97 239.928C233.197 240.553 233.295 241.192 233.274 241.837C233.256 242.462 233.099 243.09 232.807 243.702C232.518 244.293 232.065 244.854 231.443 245.354C230.832 245.845 230.193 246.161 229.555 246.314C228.919 246.448 228.289 246.451 227.686 246.326C227.084 246.18 226.506 245.927 225.973 245.547C225.44 245.167 224.956 244.713 224.55 244.177C224.137 243.63 223.827 243.035 223.599 242.41C223.372 241.785 223.274 241.145 223.293 240.52C223.314 239.875 223.47 239.247 223.76 238.656C224.06 238.055 224.521 237.506 225.132 237.015C225.755 236.515 226.385 236.188 227.012 236.043C227.651 235.89 228.28 235.887 228.881 236.032C229.485 236.157 230.063 236.411 230.596 236.791C231.129 237.17 231.603 237.634 232.017 238.181Z" fill="#A03E14"/>
<path d="M221.192 251.046L223.995 249.244L224.582 250.198L217.858 254.521L217.271 253.567L220.074 251.765L215.423 244.205L216.542 243.486L221.192 251.046Z" fill="#A03E14"/>
<path d="M199.009 252.781L200.396 252.18L207.554 259.97L206.244 260.538L200.213 253.709L200.187 253.72L200.953 262.834L199.681 263.386L199.009 252.781Z" fill="#A03E14"/>
<path d="M195.453 264.853L188.881 266.962L188.533 265.897L193.839 264.195L192.854 261.173L187.908 262.76L187.561 261.695L192.506 260.108L191.434 256.821L186.089 258.536L185.741 257.471L192.353 255.35L195.453 264.853Z" fill="#A03E14"/>
<path d="M174.706 261.189C174.974 260.59 175.372 260.122 175.885 259.787C176.412 259.448 176.95 259.222 177.525 259.103C178.265 258.949 178.937 258.939 179.574 259.092C180.211 259.246 180.783 259.499 181.284 259.881C181.796 260.247 182.214 260.703 182.553 261.262C182.904 261.804 183.137 262.399 183.28 263.041C183.439 263.752 183.492 264.441 183.443 265.123C183.395 265.805 183.218 266.428 182.944 266.999C182.667 267.557 182.259 268.042 181.747 268.449C181.235 268.855 180.583 269.148 179.802 269.31C179.281 269.418 178.759 269.455 178.265 269.429C177.772 269.403 177.304 269.3 176.876 269.117C176.445 268.92 176.057 268.658 175.718 268.299C175.38 267.94 175.095 267.499 174.871 266.945L176.174 266.675C176.324 267.03 176.518 267.318 176.743 267.557C176.983 267.794 177.251 267.967 177.537 268.093C177.834 268.203 178.152 268.28 178.5 268.294C178.847 268.307 179.202 268.291 179.558 268.217C180.161 268.092 180.641 267.864 181.014 267.543C181.384 267.209 181.657 266.823 181.846 266.384C182.035 265.944 182.126 265.454 182.14 264.936C182.167 264.416 182.109 263.899 181.993 263.38C181.877 262.86 181.699 262.383 181.445 261.949C181.204 261.513 180.89 261.135 180.523 260.84C180.17 260.541 179.749 260.328 179.289 260.195C178.829 260.062 178.314 260.069 177.766 260.182C177.259 260.288 176.825 260.464 176.464 260.71C176.117 260.954 175.836 261.241 175.626 261.584C175.416 261.928 175.287 262.313 175.235 262.724C175.183 263.135 175.223 263.57 175.337 264.018L178.462 263.369L178.706 264.462L174.416 265.353L173.27 260.215L174.092 260.044L174.706 261.189Z" fill="#A03E14"/>
<path d="M161.991 262.6C162.319 262.036 162.763 261.615 163.308 261.34C163.868 261.064 164.426 260.899 165.012 260.845C165.765 260.776 166.434 260.84 167.053 261.064C167.671 261.288 168.215 261.603 168.675 262.039C169.147 262.459 169.516 262.959 169.797 263.551C170.09 264.129 170.261 264.745 170.338 265.399C170.423 266.122 170.406 266.812 170.287 267.484C170.169 268.155 169.929 268.754 169.598 269.29C169.265 269.813 168.809 270.249 168.257 270.595C167.706 270.941 167.027 271.158 166.233 271.232C165.703 271.281 165.179 271.259 164.69 271.178C164.202 271.096 163.746 270.942 163.339 270.712C162.93 270.469 162.57 270.165 162.27 269.771C161.97 269.377 161.732 268.907 161.565 268.332L162.89 268.21C163.004 268.579 163.167 268.887 163.367 269.149C163.581 269.411 163.83 269.613 164.102 269.77C164.386 269.913 164.696 270.025 165.04 270.077C165.384 270.13 165.739 270.153 166.102 270.119C166.715 270.063 167.216 269.89 167.621 269.614C168.023 269.323 168.334 268.971 168.567 268.556C168.8 268.141 168.942 267.664 169.008 267.152C169.089 266.639 169.084 266.119 169.022 265.591C168.96 265.062 168.831 264.568 168.623 264.11C168.428 263.65 168.154 263.239 167.819 262.905C167.497 262.569 167.101 262.311 166.656 262.127C166.212 261.943 165.698 261.892 165.141 261.944C164.625 261.991 164.175 262.117 163.79 262.322C163.419 262.525 163.111 262.778 162.867 263.096C162.622 263.413 162.454 263.78 162.36 264.183C162.266 264.585 162.261 265.021 162.329 265.479L165.508 265.185L165.638 266.297L161.275 266.7L160.661 261.472L161.497 261.395L161.991 262.6Z" fill="#A03E14"/>
<path d="M156.847 271.423L155.517 271.429L155.151 261.44L156.481 261.433L156.847 271.423Z" fill="#A03E14"/>
<path d="M149.07 271.261L142.188 270.742L142.23 269.623L147.786 270.042L147.906 266.866L142.727 266.475L142.769 265.356L147.949 265.747L148.079 262.292L142.481 261.869L142.523 260.75L149.448 261.273L149.07 271.261Z" fill="#A03E14"/>
<path d="M131.74 266.103C131.729 266.825 131.909 267.383 132.307 267.78C132.706 268.177 133.235 268.442 133.911 268.562C134.187 268.611 134.466 268.632 134.735 268.623C135.018 268.616 135.266 268.56 135.489 268.472C135.714 268.37 135.902 268.233 136.055 268.033C136.209 267.833 136.299 267.579 136.341 267.26C136.382 266.954 136.332 266.69 136.179 266.464C136.026 266.238 135.812 266.044 135.523 265.879C135.236 265.7 134.918 265.544 134.543 265.392C134.182 265.243 133.807 265.091 133.433 264.94C133.059 264.774 132.688 264.595 132.319 264.401C131.963 264.21 131.655 263.985 131.379 263.723C131.105 263.447 130.906 263.142 130.769 262.791C130.634 262.426 130.591 262.007 130.656 261.521C130.726 260.993 130.911 260.557 131.195 260.224C131.479 259.891 131.823 259.64 132.212 259.467C132.616 259.297 133.052 259.204 133.521 259.174C133.991 259.144 134.451 259.183 134.892 259.261C135.444 259.359 135.958 259.521 136.436 259.748C136.914 259.975 137.314 260.259 137.649 260.602C137.984 260.946 138.226 261.358 138.387 261.841C138.549 262.324 138.577 262.855 138.496 263.466L137.256 263.246C137.311 262.829 137.29 262.456 137.165 262.122C137.04 261.787 136.865 261.514 136.629 261.273C136.392 261.033 136.109 260.826 135.762 260.679C135.43 260.521 135.078 260.416 134.705 260.35C134.416 260.299 134.123 260.275 133.812 260.277C133.501 260.278 133.228 260.315 132.962 260.41C132.709 260.507 132.492 260.653 132.309 260.862C132.142 261.06 132.019 261.351 131.971 261.711C131.926 262.045 131.986 262.339 132.136 262.593C132.287 262.833 132.5 263.041 132.784 263.234C133.069 263.426 133.385 263.596 133.746 263.745C134.121 263.897 134.496 264.049 134.871 264.201C135.246 264.352 135.617 264.532 135.975 264.709C136.346 264.888 136.657 265.1 136.934 265.348C137.211 265.596 137.414 265.873 137.553 266.21C137.692 266.547 137.725 266.937 137.664 267.395C137.597 267.894 137.444 268.308 137.189 268.632C136.948 268.958 136.632 269.215 136.27 269.392C135.908 269.569 135.498 269.681 135.056 269.716C134.613 269.752 134.163 269.743 133.708 269.662C133.212 269.574 132.753 269.422 132.326 269.232C131.915 269.032 131.569 268.771 131.271 268.463C130.976 268.14 130.772 267.763 130.63 267.34C130.489 266.918 130.455 266.429 130.499 265.883L131.74 266.103Z" fill="#A03E14"/>
<path d="M57.5735 95.1654L60.9733 89.5481L61.8991 90.1783L59.188 94.6578L61.8152 96.4459L64.1929 92.5175L65.1188 93.1476L62.7411 97.0761L66.5256 99.6521L65.8369 100.79L57.5735 95.1654Z" fill="#0C4C6D"/>
<path d="M64.584 84.2647L67.4417 80.5283C68.0201 79.7721 68.6552 79.3332 69.3363 79.2028C70.0282 79.0812 70.6864 79.2572 71.3154 79.7707C71.7926 80.1603 72.1196 80.6079 72.2966 81.1136C72.4844 81.6282 72.4593 82.1677 72.2237 82.7521L72.2454 82.7698C72.4589 82.5828 72.6794 82.4557 72.8876 82.3908C73.1066 82.3348 73.311 82.321 73.52 82.3471C73.729 82.3732 73.9234 82.4416 74.1309 82.5388C74.3385 82.6359 74.5484 82.7531 74.7497 82.8813C74.9535 83.0296 75.1463 83.169 75.3501 83.3172C75.5453 83.4765 75.7575 83.6137 75.9674 83.7308C76.1796 83.8679 76.3871 83.9651 76.6032 84.0511C76.8192 84.1372 77.0283 84.1633 77.2435 84.1584L76.3419 85.3371C76.2065 85.353 76.0555 85.3201 75.8975 85.2272C75.7503 85.1432 75.5815 85.0415 75.408 84.8999C75.2259 84.7693 75.0331 84.6299 74.8379 84.4706C74.6341 84.3223 74.4328 84.1941 74.212 84.0681C74.0021 83.9509 73.8031 83.8426 73.5956 83.7455C73.388 83.6483 73.1875 83.6111 72.9893 83.5938C72.7826 83.5876 72.5915 83.6303 72.3965 83.724C72.2015 83.8177 71.9965 83.9936 71.8009 84.2493L69.8277 86.8293L73.1355 89.5295L72.3275 90.586L64.584 84.2647ZM70.6441 83.9192C70.8312 83.6745 70.999 83.4321 71.1257 83.1743C71.2632 82.9254 71.3428 82.6832 71.3619 82.4279C71.381 82.1725 71.3421 81.924 71.2451 81.6822C71.1481 81.4405 70.9521 81.1901 70.6701 80.9599C70.2796 80.6412 69.8801 80.4957 69.4605 80.5145C69.0518 80.5421 68.641 80.8028 68.2668 81.2921L66.2596 83.9166L68.9601 86.121L70.6441 83.9192Z" fill="#0C4C6D"/>
<path d="M83.3972 72.272C84.3155 73.1752 84.7506 74.094 84.742 75.0281C84.7237 75.9722 84.2709 76.8818 83.3939 77.7865C82.4973 78.7112 81.5861 79.2288 80.6402 79.3196C79.6943 79.4103 78.762 78.9843 77.8038 78.0418L73.2523 73.5653L74.178 72.6103L78.7295 77.0869C79.3683 77.7152 80.0231 78.0253 80.6838 78.0075C81.3445 77.9897 81.9817 77.6542 82.6053 77.0109C83.19 76.4078 83.4786 75.7883 83.461 75.1427C83.4435 74.4971 83.1103 73.8552 82.4715 73.227L77.92 68.7504L78.8457 67.7955L83.3972 72.272Z" fill="#0C4C6D"/>
<path d="M83.7897 63.395L84.8014 62.5317L91.3868 70.0519L90.3751 70.9152L83.7897 63.395Z" fill="#0C4C6D"/>
<path d="M92.7913 57.729L90.0788 59.6641L89.4005 58.7729L95.9082 54.1302L96.5865 55.0214L93.874 56.9565L99.2498 64.0194L98.1671 64.7918L92.7913 57.729Z" fill="#0C4C6D"/>
<path d="M107.609 50.6142C107.154 50.0517 106.657 49.7371 106.095 49.684C105.532 49.6308 104.954 49.7627 104.355 50.0982C104.111 50.2351 103.882 50.3957 103.68 50.5731C103.465 50.7574 103.31 50.9566 103.194 51.1658C103.086 51.3869 103.029 51.611 103.039 51.862C103.049 52.113 103.142 52.3652 103.314 52.6374C103.478 52.8978 103.686 53.0697 103.95 53.1464C104.213 53.2231 104.503 53.2369 104.832 53.1809C105.168 53.1368 105.513 53.0554 105.9 52.9347C106.274 52.8208 106.661 52.7001 107.048 52.5794C107.442 52.4706 107.844 52.3735 108.253 52.2884C108.65 52.21 109.033 52.1877 109.414 52.2146C109.802 52.2533 110.152 52.3618 110.483 52.545C110.821 52.74 111.123 53.0353 111.385 53.4495C111.669 53.8992 111.806 54.3514 111.801 54.7873C111.795 55.2232 111.691 55.6342 111.501 56.0134C111.298 56.3995 111.021 56.7469 110.678 57.0675C110.335 57.3881 109.955 57.6495 109.564 57.8686C109.075 58.1425 108.574 58.3435 108.059 58.4716C107.545 58.5997 107.054 58.6345 106.575 58.5826C106.096 58.5308 105.645 58.3669 105.21 58.0977C104.775 57.8285 104.413 57.4386 104.084 56.9178L105.183 56.3017C105.407 56.6567 105.663 56.9302 105.974 57.1084C106.285 57.2866 106.595 57.3851 106.932 57.4207C107.269 57.4563 107.62 57.4358 107.982 57.3288C108.34 57.2405 108.68 57.098 109.01 56.9132C109.266 56.7694 109.507 56.6019 109.746 56.404C109.985 56.206 110.172 56.0049 110.317 55.7633C110.45 55.5286 110.524 55.2789 110.531 55.0024C110.533 54.7446 110.442 54.4431 110.248 54.1354C110.068 53.8514 109.833 53.6626 109.555 53.5623C109.284 53.4738 108.986 53.4482 108.643 53.4804C108.299 53.5127 107.946 53.5823 107.572 53.6962C107.185 53.8169 106.798 53.9376 106.411 54.0583C106.025 54.179 105.623 54.276 105.233 54.3662C104.832 54.4632 104.456 54.4973 104.083 54.4823C103.709 54.4672 103.375 54.3824 103.051 54.211C102.728 54.0397 102.453 53.7612 102.206 53.3707C101.937 52.9446 101.79 52.5298 101.779 52.1194C101.756 51.7159 101.835 51.3186 102.001 50.9531C102.167 50.5876 102.412 50.242 102.731 49.9351C103.049 49.6282 103.403 49.3499 103.806 49.124C104.245 48.8775 104.698 48.7039 105.149 48.5795C105.594 48.4738 106.029 48.4546 106.457 48.5033C106.892 48.5639 107.291 48.7247 107.671 48.9602C108.052 49.1957 108.392 49.5502 108.708 49.998L107.609 50.6142Z" fill="#0C4C6D"/>
<path d="M116.943 42.8071L118.18 42.3177L119.761 46.3141L124.656 44.377L123.074 40.3806L124.311 39.8912L127.989 49.1858L126.753 49.6752L125.068 45.4185L120.173 47.3555L121.858 51.6123L120.621 52.1017L116.943 42.8071Z" fill="#1A790B"/>
<path d="M126.344 39.4188L132.984 37.5369L133.289 38.6144L127.929 40.1337L128.795 43.1913L133.792 41.7751L134.098 42.8526L129.1 44.2689L130.043 47.5958L135.445 46.0651L135.75 47.1426L129.069 49.036L126.344 39.4188Z" fill="#1A790B"/>
<path d="M134.85 37.2718L139.479 36.4349C140.416 36.2656 141.189 36.3678 141.794 36.7278C142.403 37.1015 142.79 37.6717 142.935 38.4707C143.044 39.0769 143.001 39.6253 142.805 40.116C142.612 40.6204 142.24 41.0007 141.677 41.2731L141.682 41.3007C141.968 41.306 142.219 41.3601 142.421 41.4517C142.625 41.5571 142.79 41.6837 142.932 41.8429C143.075 42.0021 143.179 42.1825 143.274 42.393C143.369 42.6034 143.452 42.8302 143.522 43.0594C143.581 43.3049 143.637 43.5366 143.696 43.7821C143.74 44.0301 143.813 44.2731 143.896 44.4998C143.969 44.7428 144.064 44.9533 144.173 45.1612C144.281 45.3692 144.424 45.5284 144.592 45.6688L143.131 45.9328C143.017 45.8538 142.924 45.7285 142.864 45.5543C142.806 45.394 142.744 45.2061 142.704 44.9857C142.65 44.7678 142.594 44.536 142.549 44.2881C142.491 44.0426 142.421 43.8133 142.335 43.5728C142.251 43.3461 142.17 43.1332 142.075 42.9227C141.98 42.7122 141.851 42.5506 141.711 42.4052C141.557 42.2623 141.383 42.1657 141.173 42.1041C140.963 42.0425 140.691 42.0347 140.374 42.092L137.178 42.6698L137.937 46.8717L136.629 47.1083L134.85 37.2718ZM139.706 41.0746C140.009 41.0198 140.296 40.9537 140.562 40.8488C140.83 40.7576 141.049 40.6326 141.231 40.4575C141.413 40.2824 141.546 40.0734 141.63 39.8306C141.714 39.5877 141.728 39.2722 141.663 38.914C141.574 38.418 141.364 38.0434 141.031 37.7763C140.7 37.5231 140.216 37.4399 139.61 37.5495L136.358 38.1373L136.979 41.5677L139.706 41.0746Z" fill="#1A790B"/>
<path d="M145.796 40.0567L148.448 39.849C149.202 39.79 149.722 39.6228 150.037 39.3314C150.351 39.0399 150.487 38.6221 150.445 38.0917C150.418 37.7428 150.34 37.468 150.212 37.2674C150.085 37.0807 149.918 36.9253 149.714 36.8289C149.51 36.7326 149.267 36.6814 149.014 36.6731C148.761 36.6649 148.479 36.6588 148.2 36.6807L145.548 36.8884L145.796 40.0567ZM144.135 35.8757L147.75 35.5926C147.959 35.5762 148.183 35.5726 148.435 35.5529C148.686 35.5333 148.924 35.5286 149.178 35.5369C149.417 35.5462 149.643 35.5566 149.855 35.5821C150.069 35.6215 150.256 35.6771 150.416 35.7488C150.752 35.9191 151.053 36.1763 151.303 36.4938C151.554 36.8252 151.712 37.2341 151.751 37.7366C151.793 38.267 151.689 38.7385 151.469 39.149C151.248 39.5595 150.907 39.867 150.447 40.0856L150.449 40.1136C151.074 40.205 151.557 40.4481 151.924 40.8406C152.279 41.2481 152.487 41.7514 152.535 42.3655C152.564 42.7284 152.522 43.0967 152.423 43.4416C152.311 43.8014 152.139 44.1238 151.909 44.4087C151.678 44.6935 151.374 44.928 151.01 45.125C150.646 45.3221 150.219 45.4257 149.731 45.464L144.915 45.8412L144.135 35.8757ZM146.154 44.6208L149.476 44.3605C150.062 44.3146 150.497 44.1261 150.806 43.7788C151.117 43.4455 151.25 42.9858 151.206 42.4275C151.181 42.1065 151.09 41.8468 150.961 41.6322C150.819 41.4327 150.639 41.2783 150.433 41.168C150.228 41.0577 149.984 40.9925 149.729 40.9564C149.459 40.9213 149.192 40.9142 148.913 40.9361L145.884 41.1733L146.154 44.6208Z" fill="#1A790B"/>
<path d="M159.227 38.4759C159.159 37.7602 158.919 37.2367 158.478 36.9047C158.037 36.5727 157.481 36.3921 156.795 36.3767C156.516 36.3704 156.235 36.3921 155.968 36.4421C155.687 36.4918 155.446 36.5844 155.234 36.7057C155.021 36.8409 154.849 37.0051 154.718 37.2262C154.587 37.4473 154.525 37.712 154.518 38.0339C154.511 38.3418 154.589 38.5956 154.767 38.7957C154.944 38.9957 155.179 39.155 155.484 39.2739C155.789 39.4068 156.123 39.5124 156.513 39.6052C156.889 39.6977 157.279 39.7904 157.669 39.8832C158.059 39.99 158.448 40.1108 158.837 40.2456C159.212 40.3801 159.544 40.5556 159.847 40.7725C160.15 41.0033 160.382 41.2746 160.557 41.6006C160.731 41.9407 160.82 42.3488 160.809 42.8386C160.797 43.3705 160.661 43.8295 160.414 44.2021C160.168 44.5746 159.853 44.8756 159.484 45.1054C159.101 45.3348 158.677 45.4933 158.212 45.5949C157.748 45.6965 157.285 45.7281 156.837 45.718C156.278 45.7054 155.747 45.6235 155.246 45.4722C154.746 45.3209 154.317 45.1012 153.945 44.8127C153.573 44.5243 153.288 44.1538 153.074 43.7009C152.86 43.2479 152.774 42.7279 152.787 42.112L154.047 42.1404C154.038 42.5602 154.099 42.9257 154.261 43.2374C154.422 43.5491 154.626 43.7918 154.888 43.9937C155.149 44.1957 155.454 44.3565 155.816 44.4487C156.163 44.5546 156.526 44.6047 156.904 44.6132C157.198 44.6199 157.493 44.5985 157.802 44.5494C158.111 44.5004 158.379 44.4224 158.634 44.2881C158.875 44.1535 159.075 43.9759 159.234 43.7414C159.379 43.5206 159.47 43.2146 159.479 42.8507C159.486 42.5148 159.394 42.2327 159.218 42.0046C159.04 41.7906 158.806 41.6173 158.501 41.4704C158.197 41.3235 157.863 41.204 157.487 41.1115C157.097 41.0187 156.707 40.9259 156.317 40.8331C155.927 40.7403 155.538 40.6195 155.162 40.499C154.773 40.3782 154.441 40.2167 154.137 40.0138C153.833 39.811 153.601 39.5677 153.426 39.2556C153.251 38.9436 153.175 38.5638 153.186 38.102C153.197 37.5981 153.305 37.1664 153.523 36.8072C153.727 36.4477 154.014 36.1461 154.355 35.9157C154.697 35.6853 155.092 35.5122 155.529 35.41C155.965 35.3078 156.415 35.2479 156.877 35.2583C157.381 35.2696 157.855 35.3503 158.3 35.4723C158.731 35.6081 159.105 35.8125 159.435 36.072C159.765 36.3455 160.009 36.6871 160.196 37.0834C160.384 37.4797 160.471 37.9578 160.487 38.5043L159.227 38.4759Z" fill="#1A790B"/>
<circle cx="156" cy="154" r="52" stroke="#FFFDF8" stroke-width="2"/>
</svg>
